<?xml version="1.0" encoding="utf-8"?>
<!-- Generator: Adobe Illustrator 19.0.0, SVG Export Plug-In . SVG Version: 6.00 Build 0)  -->
<svg version="1.1" id="Layer_1" xmlns="http://www.w3.org/2000/svg" xmlns:xlink="http://www.w3.org/1999/xlink" x="0px" y="0px"
	 viewBox="0 0 7.3 6.6" style="enable-background:new 0 0 7.3 6.6;" xml:space="preserve">
<style type="text/css">
	.st0{fill:#009EE2;}
	.st1{fill:#FFFFFF;}
</style>
<path class="st0" d="M6.5,0.4H1.3C1.1,0.4,1,0.6,1,0.7v5.2c0,0.2,0.1,0.3,0.3,0.3h5.2c0.2,0,0.3-0.1,0.3-0.3V0.7
	C6.8,0.6,6.7,0.4,6.5,0.4L6.5,0.4z"/>
<path class="st1" d="M6.4,3.9c-0.2-0.3-0.7-0.3-1-0.3c-1.2,0-2.3,0.2-3.3,0.6c0-0.3,0-0.6,0-0.9c0.8-0.2,2.1-0.4,3-0.3
	C6,3,6.3,3.5,6.4,3.9L6.4,3.9z"/>
<path class="st1" d="M6,3.1C5.8,2.9,5.6,2.7,4.9,2.6C4.2,2.5,2.7,2.7,2,2.9c0-0.3-0.1-0.5-0.2-0.8C2.3,2,2.8,2,3.2,2
	c0.5,0,0.9,0,1.4,0.1C5.5,2.2,5.8,2.8,6,3.1L6,3.1z"/>
<path class="st1" d="M1.3,0.9c2.4-0.1,3.8,1,4,1.3C5.1,2,4.7,1.8,4.3,1.8c-0.5-0.1-1-0.1-1.5-0.1c-0.4,0-0.7,0-1.1,0.1
	C1.6,1.5,1.4,1.2,1.3,0.9L1.3,0.9z"/>
<path class="st1" d="M6,5.4c0.4-0.8,0.3-0.9-0.5-0.9C4.4,4.7,2.9,5.2,1.7,5.8C1.9,5.4,2,5,2.1,4.7c1.1-0.5,2.3-0.8,3.6-0.8
	C7,3.9,6.5,4.9,6,5.4L6,5.4z"/>
</svg>
